<?xml version="1.0" encoding="UTF-8"?>
<svg xmlns="http://www.w3.org/2000/svg" xmlns:xlink="http://www.w3.org/1999/xlink" viewBox="0 0 100 100" width="100px" height="100px">
<g id="surface247209906">
<path style=" stroke:none;fill-rule:nonzero;fill:rgb(100%,100%,100%);fill-opacity:1;" d="M 40.828125 90 C 33.9375 90 28.332031 84.390625 28.332031 77.5 C 28.332031 70.613281 33.9375 65.003906 40.832031 65 L 46.667969 65 L 46.667969 53.332031 L 22.5 53.332031 C 15.605469 53.332031 10 47.726562 10 40.832031 C 10 33.9375 15.605469 28.332031 22.5 28.332031 L 46.667969 28.332031 L 46.667969 22.5 C 46.667969 15.613281 52.273438 10 59.167969 10 C 66.058594 10 71.667969 15.605469 71.667969 22.5 C 71.667969 29.394531 66.058594 35 59.167969 35 L 53.332031 35 L 53.332031 46.667969 L 77.5 46.667969 C 84.390625 46.667969 90 52.273438 90 59.167969 C 90 66.058594 84.390625 71.667969 77.5 71.667969 L 53.332031 71.667969 L 53.332031 77.5 C 53.332031 84.390625 47.726562 90 40.828125 90 Z M 40.832031 71.667969 C 37.617188 71.671875 35 74.285156 35 77.5 C 35 80.714844 37.613281 83.332031 40.828125 83.332031 C 44.050781 83.332031 46.667969 80.714844 46.667969 77.5 L 46.667969 71.667969 Z M 53.332031 65 L 77.5 65 C 80.714844 65 83.332031 62.382812 83.332031 59.167969 C 83.332031 55.949219 80.714844 53.332031 77.5 53.332031 L 53.332031 53.332031 Z M 22.5 35 C 19.285156 35 16.667969 37.617188 16.667969 40.832031 C 16.667969 44.050781 19.285156 46.667969 22.5 46.667969 L 46.667969 46.667969 L 46.667969 35 Z M 53.332031 28.332031 L 59.167969 28.332031 C 62.382812 28.332031 65 25.714844 65 22.5 C 65 19.285156 62.382812 16.667969 59.167969 16.667969 C 55.949219 16.667969 53.332031 19.285156 53.332031 22.5 Z M 53.332031 28.332031 "/>
</g>
</svg>
