<?xml version="1.0" encoding="UTF-8"?>
<svg xmlns="http://www.w3.org/2000/svg" xmlns:xlink="http://www.w3.org/1999/xlink" viewBox="0 0 100 100" width="100px" height="100px">
<g id="surface246762383">
<path style=" stroke:none;fill-rule:nonzero;fill:rgb(100%,100%,100%);fill-opacity:1;" d="M 10 10 L 10 46.667969 L 46.667969 46.667969 L 46.667969 10 Z M 40 40 L 16.667969 40 L 16.667969 16.667969 L 40 16.667969 Z M 40 40 "/>
<path style=" stroke:none;fill-rule:nonzero;fill:rgb(100%,100%,100%);fill-opacity:1;" d="M 83.335938 53.335938 L 60 53.335938 C 56.335938 53.335938 53.335938 56.335938 53.335938 60 L 53.335938 83.335938 C 53.335938 86.996094 56.335938 90 60 90 L 83.335938 90 C 86.996094 90 90 86.996094 90 83.335938 L 90 60 C 90 56.335938 86.996094 53.335938 83.335938 53.335938 Z M 83.335938 83.335938 L 60 83.335938 L 60 60 L 83.335938 60 Z M 83.335938 83.335938 "/>
<path style=" stroke:none;fill-rule:nonzero;fill:rgb(100%,100%,100%);fill-opacity:1;" d="M 71.664062 10 C 61.542969 10 53.335938 18.210938 53.335938 28.335938 C 53.335938 38.457031 61.542969 46.667969 71.664062 46.667969 C 81.789062 46.667969 90 38.457031 90 28.335938 C 90 18.210938 81.789062 10 71.664062 10 Z M 71.664062 40 C 65.226562 40 60 34.773438 60 28.332031 C 60 21.890625 65.226562 16.664062 71.664062 16.664062 C 78.109375 16.664062 83.335938 21.890625 83.335938 28.332031 C 83.335938 34.773438 78.109375 40 71.664062 40 Z M 71.664062 40 "/>
<path style=" stroke:none;fill-rule:nonzero;fill:rgb(100%,100%,100%);fill-opacity:1;" d="M 30 53.335938 L 10 90 L 50 90 Z M 30 67.257812 L 38.769531 83.335938 L 21.230469 83.335938 Z M 30 67.257812 "/>
</g>
</svg>
