<?xml version="1.0" encoding="utf-8"?>
<!-- Generator: Adobe Illustrator 26.5.0, SVG Export Plug-In . SVG Version: 6.00 Build 0)  -->
<svg version="1.1" id="Layer_1" xmlns="http://www.w3.org/2000/svg" xmlns:xlink="http://www.w3.org/1999/xlink" x="0px" y="0px"
	 viewBox="0 0 522 187" style="enable-background:new 0 0 522 187;" xml:space="preserve">
<style type="text/css">
	.st0{fill:#FFFFFF;}
</style>
<g>
	<path class="st0" d="M123.2,44.8l-48.7,58.4h43.8l-4.9,38.9l48.7-58.4h-43.8L123.2,44.8z"/>
	<path class="st0" d="M231.1,85.5v18h-26v24.7h-20.4V55.1h51.9v18h-31.5v12.5H231.1z"/>
	<path class="st0" d="M265,55.1v73.2h-18.8V55.1H265z"/>
	<path class="st0" d="M296,70.9c2.9,0,5.8,0.7,8.5,2c2.8,1.2,5.2,2.8,7,4.8v-5.1h18.8v55.7h-18.8V119c-1.4,3.1-3.5,5.6-6.3,7.8
		c-2.8,2.1-6.3,3.2-10.3,3.2c-4.2,0-8-1.1-11.7-3.2c-3.6-2.1-6.6-5.4-9-9.7c-2.3-4.4-3.4-10-3.4-16.7c0-6.3,1.1-11.6,3.4-15.9
		c2.3-4.4,5.4-7.7,9.2-9.9C287.3,72.1,291.5,70.9,296,70.9z M299.9,89.3c-2.7,0-5,1.1-6.8,3.3c-1.7,2.2-2.6,4.8-2.6,7.8
		c0,3,0.9,5.5,2.7,7.5c1.8,2,4.2,3.1,7.2,3.1c1.6,0,3.2-0.4,4.9-1.2c1.7-0.9,3.1-2.1,4.3-3.8c1.2-1.7,1.9-4,1.9-6.7v-5.4
		c-1.6-1.3-3.4-2.4-5.5-3.3C304.1,89.7,302,89.3,299.9,89.3z"/>
	<path class="st0" d="M359.4,70.9c3.6,0,7,0.5,10,1.6c3.1,1,5.6,2.4,7.5,4.3v14.7c-1.9-1.2-4-2.3-6.4-3.3c-2.4-1.1-5-1.6-7.8-1.6
		c-1.7,0-3.3,0.4-4.7,1.1c-1.3,0.7-2,1.7-2,3.2c0,1,0.4,1.8,1.2,2.3c0.8,0.5,2.4,1.1,4.7,1.6l3.4,0.9c9.7,2.5,14.5,7.7,14.5,15.6
		c0,3.6-1.1,6.9-3.3,9.7c-2.1,2.8-4.9,5-8.4,6.6c-3.4,1.5-7.1,2.3-11.1,2.3c-4.2,0-8-0.6-11.6-1.7c-3.6-1.2-6.6-2.7-9.2-4.5V109
		c2.6,1.6,5.6,2.9,8.8,4c3.3,1.1,6.3,1.6,9,1.6c2.1,0,3.6-0.3,4.6-0.8c1-0.5,1.5-1.4,1.5-2.7c0-1-0.6-1.8-1.7-2.3
		c-1.2-0.6-2.8-1.2-5-2l-5.6-1.7c-4.1-1.2-7.1-3.2-9-5.8c-1.9-2.7-2.8-6-2.8-9.8c0-3.9,1-7.2,3.1-9.9c2-2.8,4.8-4.9,8.3-6.4
		C351.1,71.7,355.1,70.9,359.4,70.9z"/>
	<path class="st0" d="M418.7,70.9c5.7,0,10.3,1.9,13.9,5.8c3.6,3.9,5.5,9.6,5.5,17.1v34.4h-18.8l-0.1-31.5c0-2.8-0.8-4.7-2.3-5.8
		c-1.5-1.2-3.2-1.7-5.1-1.7c-2,0-3.7,0.5-5.1,1.6c-1.4,1-2.6,2.3-3.6,3.7v33.6h-18.8V55.1H403v24.7c1.7-2.4,3.9-4.5,6.3-6.2
		C411.9,71.8,415,70.9,418.7,70.9z"/>
	<path class="st0" d="M437.1,55.5v2.3h-2.8v7.1h-2.7v-7.1h-2.8v-2.3H437.1z"/>
	<path class="st0" d="M448,55.4v9.6h-2.7v-4.6l-1.9,2.2h-0.8l-1.9-2.2v4.6H438v-9.6h0.9l4.1,4.1l4.1-4.1H448z"/>
</g>
</svg>
