<?xml version="1.0" encoding="utf-8"?>
<!-- Generator: Adobe Illustrator 26.5.0, SVG Export Plug-In . SVG Version: 6.00 Build 0)  -->
<svg version="1.1" id="Layer_1" xmlns="http://www.w3.org/2000/svg" xmlns:xlink="http://www.w3.org/1999/xlink" x="0px" y="0px"
	 viewBox="0 0 522 187" style="enable-background:new 0 0 522 187;" xml:space="preserve">
<style type="text/css">
	.st0{fill:#FFFFFF;}
	.st1{fill-rule:evenodd;clip-rule:evenodd;fill:#FFFFFF;}
</style>
<g>
	<path class="st0" d="M201.9,118.8c3.7,1.8,8.1,2.7,13.2,2.7c5.4,0,10.1-1,14-3c3.9-2,7-4.7,9.2-8.1c2.2-3.4,3.6-7.1,4.1-11.1h-11.1
		c-0.6,3.8-2.4,6.8-5.4,8.9c-2.9,2.1-6.5,3.1-10.8,3.1c-2.9,0-5.5-0.5-7.7-1.5c-2.2-1-4-2.4-5.5-4.1c-1.5-1.8-2.6-3.9-3.4-6.3
		c-0.7-2.4-1.1-5-1.1-7.8c0-2.9,0.4-5.6,1.1-7.9c0.8-2.4,1.9-4.5,3.4-6.2c1.5-1.8,3.3-3.1,5.5-4.1c2.2-1,4.7-1.5,7.5-1.5
		c2.8,0,5.2,0.5,7.4,1.4c2.2,0.9,4,2.2,5.4,4.1c1.5,1.8,2.4,3.9,2.8,6.5h11.1c-0.5-4.5-1.8-8.4-4.1-11.7c-2.3-3.4-5.4-6-9.2-7.8
		c-3.8-1.9-8.3-2.8-13.4-2.8c-4.9,0-9.2,0.9-12.9,2.6c-3.6,1.7-6.5,3.9-8.9,6.7c-2.3,2.8-4.1,5.9-5.2,9.4c-1.1,3.4-1.6,6.9-1.6,10.4
		v1.7c0,3.2,0.5,6.5,1.6,9.9c1.1,3.4,2.8,6.6,5.1,9.5C195.2,114.6,198.2,117,201.9,118.8z"/>
	<path class="st1" d="M271.4,114.9c0.5-0.9,1-1.9,1.3-3v8.1h8.6V93.8c0-3.9-0.8-7.1-2.3-9.6c-1.5-2.4-3.6-4.2-6.5-5.4
		c-2.9-1.1-6.5-1.7-10.8-1.7c-1.4,0-2.9,0-4.5,0.1c-1.6,0-3.1,0.1-4.6,0.2c-1.5,0.1-2.9,0.2-4.1,0.3v9.2c1.5-0.1,3.1-0.2,4.9-0.2
		c1.9-0.1,3.7-0.2,5.5-0.2c1.8-0.1,3.4-0.1,4.7-0.1c2.5,0,4.3,0.6,5.5,1.8s1.8,3,1.8,5.5V94h-8.7c-3.7,0-7,0.5-9.8,1.5
		c-2.8,1-4.9,2.5-6.5,4.4c-1.5,2-2.3,4.5-2.3,7.6c0,2.9,0.6,5.3,1.9,7.3c1.3,2,3.1,3.6,5.4,4.7c2.3,1.1,5,1.6,8.1,1.6
		c3,0,5.5-0.5,7.5-1.6C268.6,118.5,270.2,117,271.4,114.9z M269.4,109.9c0.9-1.4,1.4-3.2,1.5-5.5v-4h-8.8c-2.5,0-4.4,0.6-5.8,1.9
		c-1.3,1.2-1.9,2.8-1.9,4.7c0,1.9,0.6,3.5,1.9,4.7c1.4,1.2,3.3,1.8,5.8,1.8c1.5,0,2.9-0.3,4.1-0.8
		C267.5,112.1,268.6,111.2,269.4,109.9z"/>
	<path class="st0" d="M307.7,121.6c-3.7,0-6.9-0.6-9.6-1.9c-2.6-1.2-4.9-2.9-6.7-5c-1.8-2.1-3.1-4.4-4-7c-0.9-2.6-1.3-5.2-1.3-7.9
		v-1.5c0-2.9,0.4-5.6,1.3-8.2c0.9-2.6,2.3-5,4.1-7c1.8-2.1,4.1-3.7,6.7-4.9c2.7-1.2,5.8-1.9,9.4-1.9c3.7,0,7,0.7,9.9,2.2
		c2.9,1.4,5.2,3.4,6.9,5.9c1.8,2.5,2.8,5.5,3,8.9h-10.5c-0.3-2.2-1.2-4-2.8-5.5c-1.6-1.5-3.7-2.2-6.5-2.2c-2.4,0-4.4,0.6-6,1.7
		c-1.6,1.1-2.7,2.7-3.5,4.8c-0.8,2-1.2,4.3-1.2,6.9c0,2.5,0.4,4.8,1.1,6.8c0.8,2,1.9,3.6,3.5,4.8c1.6,1.1,3.7,1.7,6.2,1.7
		c1.9,0,3.5-0.3,4.8-1c1.3-0.7,2.4-1.6,3.2-2.8c0.8-1.2,1.3-2.5,1.6-4.1h10.5c-0.2,3.4-1.2,6.4-3,9c-1.8,2.5-4.1,4.5-7.1,6
		C314.8,120.8,311.5,121.6,307.7,121.6z"/>
	<path class="st0" d="M341.4,119.1c2.5,1,5.8,1.5,9.7,1.5h6.1v-9.3h-6.6c-2.1,0-3.7-0.5-4.8-1.6c-1.1-1.1-1.6-2.8-1.6-4.8l0-19.2
		h13.1v-7.9h-13l0-11.9H334l0,11.9h-6.8v7.9h6.7l0,18.5c0,4.1,0.6,7.4,1.9,9.8C337,116.4,338.9,118.1,341.4,119.1z"/>
	<path class="st0" d="M376.7,121.4c-4.9,0-8.7-1.6-11.4-4.8c-2.7-3.2-4-8-4-14.3V77.7h10.8v25.5c0,2.6,0.7,4.7,2.2,6.2
		c1.5,1.5,3.4,2.3,5.9,2.3c2.5,0,4.5-0.8,6.1-2.4c1.6-1.6,2.4-3.8,2.4-6.5v-25h10.8v42.4h-8.6v-9.9c-0.2,0.9-0.5,1.7-0.8,2.5
		c-1.1,2.9-2.7,5-4.9,6.5c-2.2,1.5-4.9,2.2-8.2,2.2H376.7z"/>
	<path class="st0" d="M409.8,117.7c3.3,2.4,7.9,3.7,13.7,3.7c3.7,0,7-0.6,9.7-1.7c2.8-1.1,4.9-2.7,6.4-4.8c1.6-2.1,2.3-4.5,2.3-7.3
		c0-3.8-1.4-6.8-4.3-9c-2.8-2.2-6.7-3.6-11.7-4.1l-3.7-0.4c-2.3-0.3-3.9-0.8-5-1.5c-1-0.7-1.5-1.8-1.5-3.1c0-1.4,0.6-2.5,1.9-3.4
		c1.2-0.9,3-1.3,5.3-1.3c2.5,0,4.5,0.5,5.8,1.6c1.4,1,2.1,2.3,2.2,3.7h9.7c-0.2-4.4-1.8-7.8-5.1-10.1c-3.2-2.3-7.4-3.4-12.6-3.4
		c-3.3,0-6.3,0.5-8.9,1.6c-2.5,1-4.5,2.5-6,4.4c-1.5,2-2.2,4.4-2.2,7.3c0,3.6,1.3,6.5,3.8,8.7c2.5,2.2,6.2,3.5,10.9,4.1l3.7,0.4
		c2.8,0.3,4.8,0.8,5.9,1.6c1.2,0.8,1.8,1.9,1.8,3.4c0,1.6-0.8,2.9-2.3,3.8c-1.5,0.9-3.6,1.4-6.2,1.4c-3.1,0-5.4-0.6-6.9-1.8
		c-1.5-1.2-2.3-2.5-2.4-4h-9.7C404.8,111.8,406.5,115.2,409.8,117.7z"/>
	<path class="st1" d="M124.8,46.2C98.9,46.2,78,67.2,78,93s20.9,46.8,46.8,46.8s46.8-20.9,46.8-46.8S150.6,46.2,124.8,46.2z
		 M88.5,93c0-20,16.2-36.3,36.3-36.3c20,0,36.3,16.2,36.3,36.3c0,18.3-13.5,33.4-31.1,35.9v-8l9.3-3.4c5.4-2,9-7.1,9-12.9V88.9
		c0-2.9-2.3-5.2-5.2-5.2s-5.2,2.3-5.2,5.2v15.8c0,1.3-0.8,2.5-2.1,3l-5.7,2.1V68.2c0-2.9-2.3-5.2-5.2-5.2c-2.9,0-5.2,2.3-5.2,5.2
		v22.5l-5.5-2c-1.3-0.5-2.1-1.7-2.1-3v-6.8c0-2.9-2.3-5.2-5.2-5.2c-2.9,0-5.2,2.3-5.2,5.2v6.8c0,5.7,3.6,10.9,9,12.8l9.1,3.4v27
		C101.9,126.3,88.5,111.2,88.5,93z"/>
</g>
</svg>
