<?xml version="1.0" encoding="UTF-8"?>
<svg xmlns="http://www.w3.org/2000/svg" xmlns:xlink="http://www.w3.org/1999/xlink" viewBox="0 0 100 100" width="100px" height="100px">
<g id="surface246764305">
<path style=" stroke:none;fill-rule:nonzero;fill:rgb(100%,100%,100%);fill-opacity:1;" d="M 90 10 L 10 10 L 10 90 L 33.5 66.5 L 57 90 L 61.710938 85.285156 L 38.214844 61.785156 L 42.929688 57.070312 L 75.859375 90 L 80.574219 85.285156 L 47.644531 52.355469 L 52.355469 47.644531 L 68.925781 64.210938 L 73.640625 59.496094 L 57.070312 42.929688 L 61.785156 38.214844 L 85.285156 61.710938 L 90 57 L 66.5 33.503906 Z M 52.355469 38.214844 L 40.640625 26.496094 L 35.929688 31.214844 L 47.644531 42.929688 L 42.929688 47.644531 L 26.496094 31.214844 L 21.785156 35.929688 L 38.214844 52.355469 L 33.503906 57.070312 L 26.496094 50.070312 L 21.785156 54.785156 L 28.785156 61.789062 L 16.667969 73.90625 L 16.667969 16.667969 L 73.90625 16.667969 L 61.785156 28.789062 L 54.785156 21.785156 L 50.070312 26.496094 L 57.074219 33.503906 Z M 52.355469 38.214844 "/>
</g>
</svg>
